<?xml version="1.0" encoding="UTF-8" standalone="no"?>
<svg
   xmlns:dc="http://purl.org/dc/elements/1.1/"
   xmlns:cc="http://creativecommons.org/ns#"
   xmlns:rdf="http://www.w3.org/1999/02/22-rdf-syntax-ns#"
   xmlns:svg="http://www.w3.org/2000/svg"
   xmlns="http://www.w3.org/2000/svg"
   xmlns:sodipodi="http://sodipodi.sourceforge.net/DTD/sodipodi-0.dtd"
   xmlns:inkscape="http://www.inkscape.org/namespaces/inkscape"
   version="1.1"
   id="Layer_1"
   x="0px"
   y="0px"
   viewBox="0 0 76.668411 325.905"
   enable-background="new 0 0 330 80"
   xml:space="preserve"
   inkscape:version="0.91 r13725"
   sodipodi:docname="sololearn.svg"
   width="76.668411"
   height="325.905"><metadata
     id="metadata87"><rdf:RDF><cc:Work
         rdf:about=""><dc:format>image/svg+xml</dc:format><dc:type
           rdf:resource="http://purl.org/dc/dcmitype/StillImage" /><dc:title></dc:title></cc:Work></rdf:RDF></metadata><defs
     id="defs85" /><sodipodi:namedview
     pagecolor="#ffffff"
     bordercolor="#666666"
     borderopacity="1"
     objecttolerance="10"
     gridtolerance="10"
     guidetolerance="10"
     inkscape:pageopacity="0"
     inkscape:pageshadow="2"
     inkscape:window-width="1280"
     inkscape:window-height="1000"
     id="namedview83"
     showgrid="false"
     fit-margin-top="0"
     fit-margin-left="0"
     fit-margin-right="0"
     fit-margin-bottom="0"
     inkscape:zoom="1.0484848"
     inkscape:cx="-89.770526"
     inkscape:cy="163.4183"
     inkscape:window-x="0"
     inkscape:window-y="24"
     inkscape:window-maximized="1"
     inkscape:current-layer="Layer_1" /><g
     id="g4215"
     transform="matrix(0,-1,1,0,-2.1315906,327.3)"><g
       style="fill:#8a8a8a;fill-opacity:1"
       id="g3"><g
         style="fill:#8a8a8a;fill-opacity:1"
         id="g5"><g
           style="fill:#8a8a8a;fill-opacity:1"
           id="g7"><g
             style="fill:#8a8a8a;fill-opacity:1"
             id="g9"><path
               style="fill:#8a8a8a;fill-opacity:1"
               id="path11"
               d="m 120.8,4 c -6.8,2.2 -13.9,8.4 -13,15.4 0,8 8,14.2 15.9,16.8 C 117.5,29.1 113.1,20.3 117,10.6 118.8,6.5 120.8,4 120.8,4 Z"
               inkscape:connector-curvature="0" /></g><g
             style="fill:#8a8a8a;fill-opacity:1"
             id="g13"><path
               style="fill:#8a8a8a;fill-opacity:1"
               id="path15"
               d="m 106.1,21.3 c -2.7,7 -0.1,15.8 5.2,19.4 7.1,5.3 16.8,2.7 23.9,-3.5 -9.7,1.8 -20.3,0 -25.7,-8.7 -2.4,-4.1 -3.4,-7.2 -3.4,-7.2 z"
               inkscape:connector-curvature="0" /></g><g
             style="fill:#8a8a8a;fill-opacity:1"
             id="g17"><path
               style="fill:#8a8a8a;fill-opacity:1"
               id="path19"
               d="m 112.5,43.4 c 4.9,6 13.8,8.5 20.9,5.8 4.8,-1.9 8.4,-7.1 9.2,-13 0.5,-3 -0.1,-5.5 -0.5,-8.5 -3.5,9.7 -11.4,16.5 -21.6,17 -4.7,-0.3 -8,-1.3 -8,-1.3 z"
               inkscape:connector-curvature="0" /></g><g
             style="fill:#8a8a8a;fill-opacity:1"
             id="g21"><path
               style="fill:#8a8a8a;fill-opacity:1"
               id="path23"
               d="m 136.4,49.6 c 7.7,-1.9 15.6,-9 15.6,-16.9 0,-5.3 -5.5,-14.8 -15.9,-16.8 7.1,7.1 11.5,18.6 5.4,27.5 -2.7,3.9 -5.1,6.2 -5.1,6.2 z"
               inkscape:connector-curvature="0" /></g><g
             style="fill:#8a8a8a;fill-opacity:1"
             id="g25"><path
               style="fill:#8a8a8a;fill-opacity:1"
               id="path27"
               d="m 153.5,30.5 c 1.1,-7.6 -0.7,-17.3 -7.7,-20.9 -4.4,-2.7 -17.3,-0.1 -21.2,7.1 8.9,-3.5 20.3,-2.7 25.7,6.8 2.3,3.9 3.2,7 3.2,7 z"
               inkscape:connector-curvature="0" /></g><g
             style="fill:#8a8a8a;fill-opacity:1"
             id="g29"><path
               style="fill:#8a8a8a;fill-opacity:1"
               id="path31"
               d="M 144.3,7.1 C 138.7,2.6 129.9,0 123.7,4.4 c -7.1,4.4 -8.8,14.1 -4.4,22.1 0.9,-9.7 8,-17.7 17.4,-19.4 4.4,-0.5 7.6,0 7.6,0 z"
               inkscape:connector-curvature="0" /></g></g><g
           style="fill:#8a8a8a;fill-opacity:1"
           id="g33"><path
             style="fill:#8a8a8a;fill-opacity:1"
             id="path35"
             d="m 24.4,37.1 c 0,-1.8 -0.7,-3.3 -2,-4.6 -1.3,-1.2 -3.6,-2.3 -6.9,-3.1 -4.1,-1 -7.3,-2.5 -9.6,-4.5 -2.3,-2 -3.4,-4.4 -3.4,-7.4 0,-3.1 1.2,-5.8 3.7,-7.9 2.5,-2.1 5.7,-3.1 9.6,-3.1 4.2,0 7.6,1.2 10.1,3.6 2.5,2.4 3.7,5.2 3.7,8.4 l -0.1,0.2 -5.2,0 c 0,-2.3 -0.8,-4.2 -2.4,-5.7 -1.6,-1.5 -3.6,-2.2 -6.1,-2.2 -2.5,0 -4.5,0.6 -5.8,1.8 -1.4,1.2 -2,2.8 -2,4.8 0,1.7 0.7,3.2 2.2,4.4 1.5,1.2 3.9,2.2 7.2,3.1 4,1 7.1,2.6 9.2,4.6 2.1,2 3.2,4.6 3.2,7.6 0,3.2 -1.3,5.8 -3.8,7.8 -2.5,2 -5.9,2.9 -10,2.9 -3.9,0 -7.3,-1.1 -10.3,-3.3 -3,-2.2 -4.4,-5.1 -4.3,-8.7 l 0.1,-0.2 5.2,0 c 0,2.5 1,4.5 2.9,5.8 1.9,1.4 4.1,2.1 6.5,2.1 2.6,0 4.6,-0.6 6.1,-1.7 1.4,-1.2 2.2,-2.7 2.2,-4.7 z"
             inkscape:connector-curvature="0" /><path
             style="fill:#8a8a8a;fill-opacity:1"
             id="path37"
             d="m 68.1,30.7 c 0,4.9 -1.5,9 -4.6,12.2 -3,3.2 -7,4.9 -11.8,4.9 -4.7,0 -8.5,-1.6 -11.4,-4.9 -2.9,-3.2 -4.4,-7.3 -4.4,-12.2 l 0,-7.1 c 0,-4.9 1.5,-9 4.4,-12.2 2.9,-3.3 6.7,-4.9 11.4,-4.9 4.9,0 8.8,1.6 11.8,4.9 3,3.2 4.6,7.3 4.6,12.2 l 0,7.1 z m -5.4,-7.2 c 0,-3.7 -1,-6.7 -3,-9 -2,-2.4 -4.6,-3.5 -8,-3.5 -3.2,0 -5.7,1.2 -7.6,3.5 -1.9,2.4 -2.8,5.4 -2.8,9 l 0,7.2 c 0,3.7 0.9,6.7 2.8,9.1 1.9,2.4 4.4,3.5 7.6,3.5 3.4,0 6,-1.2 8,-3.5 2,-2.3 3,-5.4 3,-9.1 l 0,-7.2 z"
             inkscape:connector-curvature="0" /><path
             style="fill:#8a8a8a;fill-opacity:1"
             id="path39"
             d="m 81.4,43 19.6,0 0,4.2 -25,0 0,-40.1 5.4,0 0,35.9 z"
             inkscape:connector-curvature="0" /><path
             style="fill:#8a8a8a;fill-opacity:1"
             id="path41"
             d="m 168.6,43 19.6,0 0,4.2 -25,0 0,-40.1 5.4,0 0,35.9 z"
             inkscape:connector-curvature="0" /><path
             style="fill:#8a8a8a;fill-opacity:1"
             id="path43"
             d="m 216.1,28.6 -16.5,0 0,14.4 19.3,0 0,4.2 -24.7,0 0,-40.1 24.4,0 0,4.3 -19,0 0,13 16.5,0 0,4.2 z"
             inkscape:connector-curvature="0" /><path
             style="fill:#8a8a8a;fill-opacity:1"
             id="path45"
             d="m 246,36.9 -15.1,0 -3.6,10.3 -5.5,0 14.5,-40.1 4.7,0 14.2,40.1 -5.5,0 -3.7,-10.3 z m -13.5,-4.6 12,0 -5.8,-17.2 -0.2,0 -6,17.2 z"
             inkscape:connector-curvature="0" /><path
             style="fill:#8a8a8a;fill-opacity:1"
             id="path47"
             d="m 266.4,29.8 0,17.4 -5.4,0 0,-40.1 13.7,0 c 4.4,0 7.7,1 10.1,2.9 2.3,1.9 3.5,4.8 3.5,8.5 0,2.1 -0.5,3.9 -1.6,5.4 -1.1,1.5 -2.6,2.7 -4.7,3.6 2.2,0.7 3.8,1.9 4.8,3.5 1,1.6 1.4,3.6 1.4,6 l 0,3.8 c 0,1.2 0.1,2.4 0.4,3.4 0.3,1 0.8,1.8 1.4,2.4 l 0,0.7 -5.6,0 c -0.7,-0.6 -1.2,-1.5 -1.4,-2.8 -0.2,-1.2 -0.3,-2.5 -0.3,-3.7 l 0,-3.8 c 0,-2.2 -0.6,-3.9 -1.9,-5.2 -1.3,-1.3 -3,-2 -5.1,-2 l -9.3,0 z m 0,-4.3 7.7,0 c 3.1,0 5.3,-0.6 6.6,-1.8 1.3,-1.2 2,-2.9 2,-5.3 0,-2.3 -0.7,-4 -2,-5.3 -1.3,-1.2 -3.4,-1.9 -6.1,-1.9 l -8.3,0 0,14.3 z"
             inkscape:connector-curvature="0" /><path
             style="fill:#8a8a8a;fill-opacity:1"
             id="path49"
             d="m 327.3,47.2 -5.4,0 -19.3,-30.7 -0.2,0.1 0,30.6 -5.4,0 0,-40.1 5.4,0 19.3,30.6 0.2,-0.1 0,-30.5 5.4,0 0,40.1 z"
             inkscape:connector-curvature="0" /></g></g></g><g
       style="fill:#8a8a8a;fill-opacity:1"
       id="g51"><path
         style="fill:#8a8a8a;fill-opacity:1"
         id="path53"
         d="m 11.7,71.4 -6.8,0 0,5.5 7.9,0 0,1.7 -10,0 0,-15.6 9.8,0 0,1.7 -7.7,0 0,5 6.8,0 0,1.7 z"
         inkscape:connector-curvature="0" /><path
         style="fill:#8a8a8a;fill-opacity:1"
         id="path55"
         d="m 27.1,75.9 4.5,-12.9 2.3,0 -5.9,15.6 -1.8,0 -5.8,-15.6 2.2,0 4.5,12.9 z"
         inkscape:connector-curvature="0" /><path
         style="fill:#8a8a8a;fill-opacity:1"
         id="path57"
         d="m 51.4,71.4 -6.8,0 0,5.5 7.9,0 0,1.7 -9.9,0 0,-15.6 9.8,0 0,1.7 -7.8,0 0,5 6.8,0 0,1.7 z"
         inkscape:connector-curvature="0" /><path
         style="fill:#8a8a8a;fill-opacity:1"
         id="path59"
         d="m 67.4,72.3 -3.7,0 0,6.3 -2.1,0 0,-15.6 5.2,0 c 1.8,0 3.1,0.4 4.1,1.2 0.9,0.8 1.4,2 1.4,3.5 0,1 -0.3,1.8 -0.8,2.5 -0.5,0.7 -1.3,1.3 -2.2,1.6 l 3.7,6.6 0,0.1 -2.2,0 -3.4,-6.2 z m -3.7,-1.7 3.2,0 c 1,0 1.8,-0.3 2.4,-0.8 0.6,-0.5 0.9,-1.2 0.9,-2.1 0,-1 -0.3,-1.7 -0.9,-2.2 -0.6,-0.5 -1.4,-0.8 -2.5,-0.8 l -3.2,0 0,5.9 z"
         inkscape:connector-curvature="0" /><path
         style="fill:#8a8a8a;fill-opacity:1"
         id="path61"
         d="m 86,70.8 4.1,-7.9 2.3,0 -5.4,9.8 0,5.8 -2,0 0,-5.8 -5.4,-9.7 2.4,0 4,7.8 z"
         inkscape:connector-curvature="0" /><path
         style="fill:#8a8a8a;fill-opacity:1"
         id="path63"
         d="m 112.8,71.3 c 0,1.5 -0.3,2.9 -0.8,4 -0.5,1.1 -1.2,2 -2.2,2.6 -1,0.6 -2,0.9 -3.3,0.9 -1.2,0 -2.3,-0.3 -3.3,-0.9 -1,-0.6 -1.7,-1.5 -2.2,-2.6 -0.5,-1.1 -0.8,-2.4 -0.8,-3.9 l 0,-1.1 c 0,-1.5 0.3,-2.8 0.8,-4 0.5,-1.2 1.3,-2 2.2,-2.6 1,-0.6 2.1,-0.9 3.3,-0.9 1.3,0 2.4,0.3 3.3,0.9 1,0.6 1.7,1.5 2.2,2.6 0.5,1.2 0.8,2.5 0.8,4 l 0,1 z m -2.1,-1 c 0,-1.9 -0.4,-3.3 -1.1,-4.3 -0.7,-1 -1.8,-1.5 -3.1,-1.5 -1.3,0 -2.3,0.5 -3.1,1.5 -0.7,1 -1.1,2.4 -1.2,4.1 l 0,1.1 c 0,1.8 0.4,3.2 1.1,4.2 0.8,1 1.8,1.5 3.1,1.5 1.3,0 2.4,-0.5 3.1,-1.5 0.7,-1 1.1,-2.4 1.1,-4.2 l 0,-0.9 z"
         inkscape:connector-curvature="0" /><path
         style="fill:#8a8a8a;fill-opacity:1"
         id="path65"
         d="m 134.5,78.6 -2.1,0 -7.9,-12.1 0,12.1 -2.1,0 0,-15.6 2.1,0 7.9,12.1 0,-12.1 2.1,0 0,15.6 z"
         inkscape:connector-curvature="0" /><path
         style="fill:#8a8a8a;fill-opacity:1"
         id="path67"
         d="m 153.6,71.4 -6.8,0 0,5.5 7.9,0 0,1.7 -9.9,0 0,-15.6 9.8,0 0,1.7 -7.8,0 0,5 6.8,0 0,1.7 z"
         inkscape:connector-curvature="0" /><path
         style="fill:#8a8a8a;fill-opacity:1"
         id="path69"
         d="m 188.1,73.7 c -0.2,1.7 -0.8,2.9 -1.8,3.8 -1,0.9 -2.4,1.3 -4.1,1.3 -1.8,0 -3.3,-0.7 -4.4,-2 -1.1,-1.3 -1.7,-3.1 -1.7,-5.3 l 0,-1.5 c 0,-1.5 0.3,-2.7 0.8,-3.8 0.5,-1.1 1.3,-2 2.2,-2.5 1,-0.6 2.1,-0.9 3.3,-0.9 1.7,0 3,0.5 4,1.4 1,0.9 1.6,2.2 1.8,3.9 l -2.2,0 c -0.2,-1.3 -0.6,-2.2 -1.2,-2.7 -0.6,-0.6 -1.4,-0.8 -2.5,-0.8 -1.3,0 -2.4,0.5 -3.1,1.5 -0.7,1 -1.1,2.4 -1.1,4.2 l 0,1.5 c 0,1.7 0.4,3 1.1,4.1 0.7,1 1.7,1.5 3,1.5 1.1,0 2,-0.3 2.6,-0.8 0.6,-0.5 1,-1.4 1.2,-2.7 l 2.1,0 z"
         inkscape:connector-curvature="0" /><path
         style="fill:#8a8a8a;fill-opacity:1"
         id="path71"
         d="m 206.2,74.5 -6.6,0 -1.5,4.1 -2.1,0 6,-15.6 1.8,0 6,15.6 -2.1,0 -1.5,-4.1 z m -6,-1.7 5.3,0 -2.7,-7.3 -2.6,7.3 z"
         inkscape:connector-curvature="0" /><path
         style="fill:#8a8a8a;fill-opacity:1"
         id="path73"
         d="m 230.5,78.6 -2.1,0 -7.9,-12.1 0,12.1 -2.1,0 0,-15.6 2.1,0 7.9,12.1 0,-12.1 2.1,0 0,15.6 z"
         inkscape:connector-curvature="0" /><path
         style="fill:#8a8a8a;fill-opacity:1"
         id="path75"
         d="m 265,73.7 c -0.2,1.7 -0.8,2.9 -1.8,3.8 -1,0.9 -2.4,1.3 -4.1,1.3 -1.8,0 -3.3,-0.7 -4.4,-2 -1.1,-1.3 -1.7,-3.1 -1.7,-5.3 l 0,-1.5 c 0,-1.5 0.3,-2.7 0.8,-3.8 0.5,-1.1 1.3,-2 2.2,-2.5 1,-0.6 2.1,-0.9 3.3,-0.9 1.7,0 3,0.5 4,1.4 1,0.9 1.6,2.2 1.8,3.9 l -2.1,0 c -0.2,-1.3 -0.6,-2.2 -1.2,-2.7 -0.6,-0.6 -1.4,-0.8 -2.5,-0.8 -1.3,0 -2.4,0.5 -3.1,1.5 -0.7,1 -1.1,2.4 -1.1,4.2 l 0,1.5 c 0,1.7 0.4,3 1.1,4.1 0.7,1 1.7,1.5 3,1.5 1.1,0 2,-0.3 2.6,-0.8 0.6,-0.5 1,-1.4 1.2,-2.7 l 2,0 z"
         inkscape:connector-curvature="0" /><path
         style="fill:#8a8a8a;fill-opacity:1"
         id="path77"
         d="m 286.5,71.3 c 0,1.5 -0.3,2.9 -0.8,4 -0.5,1.1 -1.2,2 -2.2,2.6 -1,0.6 -2,0.9 -3.3,0.9 -1.2,0 -2.3,-0.3 -3.3,-0.9 -1,-0.6 -1.7,-1.5 -2.2,-2.6 -0.5,-1.1 -0.8,-2.4 -0.8,-3.9 l 0,-1.1 c 0,-1.5 0.3,-2.8 0.8,-4 0.5,-1.2 1.3,-2 2.2,-2.6 1,-0.6 2.1,-0.9 3.3,-0.9 1.3,0 2.4,0.3 3.3,0.9 1,0.6 1.7,1.5 2.2,2.6 0.5,1.2 0.8,2.5 0.8,4 l 0,1 z m -2.1,-1 c 0,-1.9 -0.4,-3.3 -1.1,-4.3 -0.7,-1 -1.8,-1.5 -3.1,-1.5 -1.3,0 -2.3,0.5 -3.1,1.5 -0.7,1 -1.1,2.4 -1.2,4.1 l 0,1.1 c 0,1.8 0.4,3.2 1.1,4.2 0.8,1 1.8,1.5 3.1,1.5 1.3,0 2.4,-0.5 3.1,-1.5 0.7,-1 1.1,-2.4 1.1,-4.2 l 0,-0.9 z"
         inkscape:connector-curvature="0" /><path
         style="fill:#8a8a8a;fill-opacity:1"
         id="path79"
         d="m 296.2,78.6 0,-15.6 4.4,0 c 1.4,0 2.6,0.3 3.6,0.9 1,0.6 1.9,1.5 2.4,2.6 0.6,1.1 0.9,2.4 0.9,3.8 l 0,1 c 0,1.5 -0.3,2.8 -0.9,3.9 -0.6,1.1 -1.4,2 -2.4,2.6 -1.1,0.6 -2.3,0.9 -3.7,0.9 l -4.3,0 z m 2,-13.9 0,12.3 2.2,0 c 1.6,0 2.8,-0.5 3.7,-1.5 0.9,-1 1.3,-2.4 1.3,-4.2 l 0,-0.9 c 0,-1.8 -0.4,-3.2 -1.3,-4.1 -0.8,-1 -2,-1.5 -3.5,-1.5 l -2.4,0 z"
         inkscape:connector-curvature="0" /><path
         style="fill:#8a8a8a;fill-opacity:1"
         id="path81"
         d="m 326,71.4 -6.8,0 0,5.5 7.9,0 0,1.7 -9.9,0 0,-15.6 9.8,0 0,1.7 -7.8,0 0,5 6.8,0 0,1.7 z"
         inkscape:connector-curvature="0" /></g></g></svg>